<svg xmlns="http://www.w3.org/2000/svg" viewBox="0 0 64 64"><path fill="#2b2e63" d="M60.6 14c-.8-1.2-1.8-2.1-3.1-2.7L35.3.8c-2.1-1-4.5-1-6.6 0L6.6 11.3c-1.3.6-2.4 1.6-3.1 2.7-.8 1.3-1.3 2.7-1.3 4.2v27c0 2.9 1.6 5.6 4.3 6.9l22.1 11.1c1.1.5 2.2.8 3.5.8 1.2 0 2.4-.3 3.5-.8l22.1-11.1c2.6-1.3 4.3-4 4.3-6.9v-27c-.2-1.5-.6-2.9-1.4-4.2zM31 62c-.6-.1-1.1-.3-1.6-.5L7.3 50.4c-2-1-3.2-3-3.2-5.2v-27c0-.8.2-1.7.5-2.4l23.9 12c.4.2.7.3 1.1.4.1 0 .2.1.3.1.3.1.7.2 1 .2h.1V62zm-1.6-35.9L5.8 14.2c.5-.5 1-.9 1.7-1.2l22-10.5c1.6-.8 3.4-.8 5 0L56.6 13c.6.3 1.2.7 1.7 1.2L34.6 26.1c-1.6.7-3.6.8-5.2 0zm30.5 19.1c0 2.2-1.2 4.2-3.2 5.2L34.6 61.5c-.5.3-1.1.4-1.6.5V28.5h.1c.3-.1.7-.1 1-.2.1 0 .2-.1.3-.1.4-.1.7-.3 1.1-.4l23.9-12c.3.8.5 1.6.5 2.4v27z"/><path fill="#51bf9f" d="M30.9 28.5c-.3-.1-.7-.1-1-.2-.1 0-.2-.1-.3-.1-.4-.1-.7-.3-1.1-.4l-23.9-12c-.3.8-.5 1.6-.5 2.4v27c0 2.2 1.2 4.2 3.2 5.2l22.1 11.1c.5.3 1.1.4 1.6.5V28.5h-.1zM12.3 48.4c-.3.2-.7.2-1 .2-1.4 0-2.8-1.1-3.7-2.9-.5-1-.7-2-.5-3 .1-1.1.7-1.9 1.5-2.3 1.6-.7 3.6.4 4.7 2.7 1 2.2.6 4.6-1 5.3zm1.6-20.3c-.1 1.1-.7 1.9-1.5 2.3-.3.1-.7.2-1 .2-.6 0-1.2-.2-1.7-.6-.8-.5-1.5-1.3-1.9-2.3-.5-1-.7-2.1-.5-3 .1-1.1.7-1.9 1.5-2.3 1.6-.7 3.6.4 4.7 2.7.3 1 .5 2.1.4 3zm7 12.4c-.1 1.1-.7 1.9-1.5 2.3-.3.1-.7.2-1 .2-.6 0-1.2-.2-1.7-.5-.8-.5-1.5-1.3-1.9-2.3-.5-1-.6-2-.5-3 .1-1.1.7-1.9 1.5-2.3.8-.4 1.8-.3 2.7.3.8.5 1.5 1.3 1.9 2.3.5 1 .6 2 .5 3zm5.5 14.6c-.3.1-.7.2-1 .2-1.4 0-2.8-1.1-3.7-2.9-1-2.2-.6-4.6 1-5.3 1.6-.7 3.6.4 4.7 2.7 1.1 2.2.6 4.5-1 5.3zM28 34.8c-.1 1.1-.7 1.9-1.5 2.3-.3.1-.7.2-1 .2-1.4 0-2.8-1.1-3.7-2.9-.5-1-.6-2-.5-3 .1-1.1.7-1.9 1.5-2.3.8-.4 1.8-.3 2.7.3.8.5 1.5 1.3 1.9 2.3.6 1.1.7 2.2.6 3.1zM56.6 13 34.5 2.5c-1.6-.8-3.4-.8-5 0L7.4 13c-.6.3-1.2.7-1.7 1.2L29.4 26c1.6.8 3.6.8 5.2 0l23.7-11.8c-.5-.5-1.1-.9-1.7-1.2zm-38.4 4c-2.7 0-4.7-1.2-4.7-2.7 0-1.6 2-2.7 4.7-2.7s4.7 1.1 4.7 2.7S21 17 18.2 17zM32 23.3c-2.7 0-4.7-1.1-4.7-2.7s2-2.7 4.7-2.7 4.7 1.1 4.7 2.7-2 2.7-4.7 2.7zm0-12.6c-2.7 0-4.7-1.1-4.7-2.7s2-2.7 4.7-2.7 4.7 1.1 4.7 2.7-2 2.7-4.7 2.7zM45.8 17c-2.7 0-4.7-1.2-4.7-2.7 0-1.6 2-2.7 4.7-2.7s4.7 1.1 4.7 2.7-2 2.7-4.7 2.7zm13.6-1.2-23.9 12c-.3.2-.7.3-1.1.4-.1 0-.2.1-.3.1-.3.1-.7.2-1 .2H33V62c.6-.1 1.1-.3 1.6-.5l22.1-11.1c2-1 3.2-3 3.2-5.2v-27c0-.8-.2-1.6-.5-2.4zm-9 9.3c.5-.9 1.2-1.7 2-2.2.9-.5 1.9-.6 2.7-.2 1.5.8 1.8 3.1.6 5.2-.5.9-1.2 1.7-2 2.2-.5.3-1.1.4-1.6.4-.4 0-.8-.1-1.1-.3-1.5-.7-1.7-3-.6-5.1zm-8 27.4c-.5.9-1.2 1.7-2 2.2-.5.3-1.1.4-1.6.4-.4 0-.8-.1-1.1-.3-1.5-.8-1.8-3.1-.6-5.2 1.2-2.1 3.2-3.1 4.7-2.3.9.5 1.3 1.5 1.3 2.6.1.8-.2 1.7-.7 2.6zm0-9.1c-.5.9-1.2 1.7-2 2.2-.5.3-1.1.4-1.6.4-.4 0-.8-.1-1.1-.3-1.5-.8-1.8-3.1-.6-5.2 1.2-2.1 3.2-3.1 4.7-2.3.9.5 1.3 1.5 1.3 2.6.1.8-.2 1.7-.7 2.6zm0-9.1c-.9 1.6-2.3 2.6-3.6 2.6-.4 0-.8-.1-1.1-.3-1.5-.8-1.8-3.1-.6-5.2 1.2-2.1 3.2-3.1 4.7-2.3.8.4 1.3 1.3 1.3 2.4.1.8-.1 1.8-.7 2.8zm13.4 11.9c-.5.9-1.2 1.7-2 2.2-.5.3-1.1.5-1.6.5-.4 0-.8-.1-1.1-.3-1.5-.8-1.8-3.1-.6-5.2.5-.9 1.2-1.7 2-2.2.9-.5 1.9-.6 2.7-.2 1.5.8 1.7 3.1.6 5.2zm0-9.1c-.5.9-1.2 1.7-2 2.2-.5.3-1.1.5-1.6.5-.4 0-.8-.1-1.1-.3-.8-.4-1.3-1.3-1.3-2.4 0-.9.2-1.9.7-2.9.5-.9 1.2-1.7 2-2.2.9-.5 1.9-.6 2.7-.2.8.4 1.3 1.3 1.3 2.4 0 1-.2 2-.7 2.9z"/><path fill="#3da580" d="M31 60.4V62c-.6-.1-1.1-.3-1.6-.5L7.3 50.4c-2-1-3.2-3-3.2-5.2v-27c0-.8.2-1.7.5-2.4l1.5.7c-.2.6-.5 1.6-.5 1.7v27c0 1.6.9 3.1 2.4 3.8l23 11.4zm27.2-46.2-1.5.7-23-11.1c-.6-.3-1.2-.4-1.8-.4-.6 0-1.3.1-1.8.4L7.3 15l-1.6-.8c.5-.5 1-.9 1.6-1.2L29.5 2.5c1.6-.8 3.4-.8 5 0L56.6 13c.6.3 1.2.7 1.6 1.2zm1.7 4v27c0 2.2-1.2 4.2-3.2 5.2l-22.1 11c-.5.3-1.1.4-1.6.5v-1.5L56 49c1.5-.7 2.4-2.2 2.4-3.8V16.3l1-.5c.3.8.5 1.6.5 2.4z"/><path fill="#2b2e63" d="M32 5.3c-2.7 0-4.7 1.1-4.7 2.7s2 2.7 4.7 2.7 4.7-1.1 4.7-2.7-2-2.7-4.7-2.7zm0 3.5c-1.7 0-2.7-.6-2.8-.8.1-.2 1-.8 2.8-.8 1.6 0 2.6.5 2.8.8-.2.2-1.2.8-2.8.8z"/><path fill="#ededed" d="M34.8 8c-.2.3-1.1.8-2.8.8-1.7 0-2.7-.6-2.8-.8.1-.2 1-.8 2.8-.8 1.6 0 2.6.5 2.8.8zm0 12.6c-.2.3-1.1.8-2.8.8-1.7 0-2.7-.6-2.8-.8.1-.2 1-.8 2.8-.8 1.6 0 2.6.6 2.8.8z"/><path fill="#2b2e63" d="M32 17.9c-2.7 0-4.7 1.1-4.7 2.7s2 2.7 4.7 2.7 4.7-1.1 4.7-2.7-2-2.7-4.7-2.7zm0 3.5c-1.7 0-2.7-.6-2.8-.8.1-.2 1-.8 2.8-.8 1.6 0 2.6.5 2.8.8-.2.3-1.2.8-2.8.8zm13.8-9.8c-2.7 0-4.7 1.1-4.7 2.7s2 2.7 4.7 2.7 4.7-1.2 4.7-2.7c0-1.6-2-2.7-4.7-2.7zm0 3.5c-1.7 0-2.7-.6-2.8-.8.1-.2 1-.8 2.8-.8 1.6 0 2.6.5 2.7.8-.2.3-1.1.8-2.7.8z"/><path fill="#ededed" d="M48.5 14.3c-.2.3-1.1.8-2.7.8-1.7 0-2.7-.6-2.8-.8.1-.2 1-.8 2.8-.8 1.6 0 2.5.6 2.7.8z"/><path fill="#2b2e63" d="M18.2 11.6c-2.7 0-4.7 1.1-4.7 2.7s2 2.7 4.7 2.7 4.7-1.2 4.7-2.7c0-1.6-1.9-2.7-4.7-2.7zm0 3.5c-1.7 0-2.7-.6-2.8-.8.1-.2 1.1-.8 2.8-.8 1.6 0 2.6.5 2.8.8-.2.3-1.1.8-2.8.8z"/><path fill="#ededed" d="M21 14.3c-.2.3-1.1.8-2.8.8-1.7 0-2.7-.6-2.8-.8.1-.2 1.1-.8 2.8-.8 1.7 0 2.6.6 2.8.8z"/><path fill="#2b2e63" d="M13.4 25.1c-1-2.2-3.1-3.4-4.7-2.7-.8.4-1.4 1.2-1.5 2.3-.1.9.1 2 .5 3 .5 1 1.2 1.8 1.9 2.3.6.4 1.2.6 1.7.6.4 0 .7-.1 1-.2.8-.4 1.4-1.2 1.5-2.3.2-.9 0-2-.4-3zM12 27.9c0 .4-.2.7-.4.8-.2.1-.5 0-.9-.2-.5-.3-.9-.9-1.2-1.5-.3-.7-.5-1.4-.4-2 .1-.4.2-.7.4-.8h.2c.5 0 1.4.6 1.9 1.8.3.6.5 1.3.4 1.9z"/><path fill="#ededed" d="M12 27.9c0 .4-.2.7-.4.8-.2.1-.5 0-.9-.2-.5-.3-.9-.9-1.2-1.5-.3-.7-.5-1.4-.4-2 .1-.4.2-.7.4-.8h.2c.5 0 1.4.6 1.9 1.8.3.6.5 1.3.4 1.9z"/><path fill="#2b2e63" d="M20.4 37.5c-.5-1-1.1-1.8-1.9-2.3-.9-.6-1.9-.7-2.7-.3-.8.4-1.4 1.2-1.5 2.3-.1.9.1 2 .5 3 .5 1 1.2 1.8 1.9 2.3.6.4 1.2.5 1.7.5.4 0 .7-.1 1-.2.8-.4 1.4-1.2 1.5-2.3.1-1 0-2-.5-3zM19 40.2c0 .4-.2.7-.4.8-.2.1-.5 0-.9-.2-.5-.3-.9-.9-1.2-1.5-.3-.6-.4-1.3-.4-1.9.1-.4.2-.7.4-.8h.2c.2 0 .4.1.7.2.5.3.9.9 1.2 1.5.3.5.4 1.1.4 1.6v.3z"/><path fill="#ededed" d="M19 39.9v.3c0 .4-.2.7-.4.8-.2.1-.5 0-.9-.2-.5-.3-.9-.9-1.2-1.5-.3-.6-.4-1.3-.4-1.9.1-.4.2-.7.4-.8h.2c.2 0 .4.1.7.2.5.3.9.9 1.2 1.5.3.5.4 1.1.4 1.6z"/><path fill="#2b2e63" d="M27.4 49.8c-1-2.2-3.1-3.4-4.7-2.7-1.6.7-2 3.1-1 5.3.8 1.8 2.3 2.9 3.7 2.9.4 0 .7-.1 1-.2 1.6-.8 2.1-3.1 1-5.3zm-1.8 3.5c-.4.2-1.5-.4-2.1-1.7-.6-1.4-.4-2.5 0-2.7h.2c.5 0 1.4.6 1.9 1.8.7 1.3.5 2.4 0 2.6z"/><path fill="#ededed" d="M25.6 53.3c-.4.2-1.5-.4-2.1-1.7-.6-1.4-.4-2.5 0-2.7h.2c.5 0 1.4.6 1.9 1.8.7 1.3.5 2.4 0 2.6z"/><path fill="#2b2e63" d="M27.5 31.8c-.5-1-1.1-1.8-1.9-2.3-.9-.6-1.9-.7-2.7-.3-.8.4-1.4 1.2-1.5 2.3-.1.9.1 2 .5 3 .8 1.8 2.3 2.9 3.7 2.9.4 0 .7-.1 1-.2.8-.4 1.4-1.2 1.5-2.3 0-1-.1-2.1-.6-3.1zm-1.4 2.8c-.1.4-.2.7-.4.8-.4.2-1.5-.4-2.1-1.7-.3-.7-.4-1.4-.4-1.9.1-.4.2-.7.4-.8h.2c.2 0 .4.1.7.3.5.3.9.9 1.2 1.5.3.5.5 1.2.4 1.8z"/><path fill="#ededed" d="M26.1 34.6c-.1.4-.2.7-.4.8-.4.2-1.5-.4-2.1-1.7-.3-.7-.4-1.4-.4-1.9.1-.4.2-.7.4-.8h.2c.2 0 .4.1.7.3.5.3.9.9 1.2 1.5.3.5.5 1.2.4 1.8z"/><path fill="#2b2e63" d="M13.3 43.1c-1-2.2-3.1-3.4-4.7-2.7-.8.4-1.4 1.2-1.5 2.3-.1.9.1 2 .5 3 .8 1.8 2.3 2.9 3.7 2.9.3 0 .7-.1 1-.2 1.6-.7 2-3.1 1-5.3zm-1.8 3.5c-.4.2-1.5-.4-2.1-1.7-.3-.6-.4-1.3-.4-1.9.1-.4.2-.7.4-.8h.2c.5 0 1.3.6 1.9 1.8.7 1.3.4 2.4 0 2.6z"/><path fill="#ededed" d="M11.5 46.6c-.4.2-1.5-.4-2.1-1.7-.3-.6-.4-1.3-.4-1.9.1-.4.2-.7.4-.8h.2c.5 0 1.3.6 1.9 1.8.7 1.3.4 2.4 0 2.6z"/><path fill="#2b2e63" d="M41.8 29c-1.5-.8-3.6.2-4.7 2.3-1.2 2.1-.9 4.4.6 5.2.3.2.7.3 1.1.3 1.3 0 2.7-1 3.6-2.6.5-.9.8-2 .7-2.9 0-1-.5-1.9-1.3-2.3zm-1.1 4.3c-.7 1.3-1.7 1.8-2.1 1.5-.4-.2-.5-1.4.2-2.6.6-1.1 1.4-1.6 1.9-1.6h.2c.2.1.3.4.3.8 0 .6-.1 1.3-.5 1.9z"/><path fill="#ededed" d="M41.2 31.5c0 .6-.1 1.2-.5 1.9-.7 1.3-1.7 1.8-2.1 1.5-.4-.2-.5-1.4.2-2.6.6-1.1 1.4-1.6 1.9-1.6h.2c.2.1.3.4.3.8z"/><path fill="#2b2e63" d="M41.8 38.1c-1.5-.8-3.6.2-4.7 2.3-1.2 2.1-.9 4.4.6 5.2.3.2.7.3 1.1.3.5 0 1-.1 1.6-.4.8-.5 1.5-1.2 2-2.2.5-.9.7-1.8.7-2.6.1-1.1-.4-2.1-1.3-2.6zm-1.1 4.3c-.3.6-.8 1.1-1.3 1.4-.3.2-.6.3-.8.1-.4-.2-.5-1.4.2-2.6.6-1.1 1.4-1.6 1.9-1.6h.2c.4.3.5 1.5-.2 2.7z"/><path fill="#ededed" d="M40.7 42.4c-.3.6-.8 1.1-1.3 1.4-.3.2-.6.3-.8.1-.4-.2-.5-1.4.2-2.6.6-1.1 1.4-1.6 1.9-1.6h.2c.4.3.5 1.5-.2 2.7z"/><path fill="#2b2e63" d="M41.8 47.2c-1.5-.8-3.6.2-4.7 2.3-1.2 2.1-.9 4.4.6 5.2.3.2.7.3 1.1.3.5 0 1-.2 1.6-.4.8-.5 1.5-1.2 2-2.2.5-.9.7-1.8.7-2.6.1-1.1-.4-2.1-1.3-2.6zm-1.1 4.3c-.3.6-.8 1.1-1.3 1.4-.3.2-.6.2-.8.2-.4-.2-.5-1.4.2-2.6.6-1.1 1.4-1.6 1.9-1.6h.2c.4.2.5 1.4-.2 2.6z"/><path fill="#ededed" d="M40.7 51.5c-.3.6-.8 1.1-1.3 1.4-.3.2-.6.2-.8.2-.4-.2-.5-1.4.2-2.6.6-1.1 1.4-1.6 1.9-1.6h.2c.4.2.5 1.4-.2 2.6z"/><path fill="#2b2e63" d="M55.2 22.8c-.8-.4-1.8-.4-2.7.2-.8.5-1.5 1.2-2 2.2-1.1 2.1-.9 4.4.6 5.2.3.2.7.3 1.1.3.5 0 1.1-.2 1.6-.4.8-.5 1.5-1.2 2-2.2 1.1-2.2.9-4.5-.6-5.3zm-1.1 4.3c-.3.6-.8 1.1-1.3 1.4-.3.2-.6.3-.8.1-.4-.2-.5-1.4.2-2.6.3-.6.8-1.1 1.3-1.4.2-.1.4-.2.6-.2h.2c.3.3.5 1.4-.2 2.7z"/><path fill="#ededed" d="M54.1 27.1c-.3.6-.8 1.1-1.3 1.4-.3.2-.6.3-.8.1-.4-.2-.5-1.4.2-2.6.3-.6.8-1.1 1.3-1.4.2-.1.4-.2.6-.2h.2c.3.3.5 1.4-.2 2.7z"/><path fill="#2b2e63" d="M55.2 31.9c-.8-.4-1.8-.4-2.7.2-.8.5-1.5 1.2-2 2.2-.5.9-.8 2-.7 2.9.1 1.1.5 1.9 1.3 2.4.3.2.7.3 1.1.3.5 0 1.1-.1 1.6-.5.8-.4 1.5-1.2 2-2.2.5-.9.8-2 .7-2.9-.1-1.1-.6-2-1.3-2.4zm-1.1 4.3c-.3.6-.8 1.1-1.3 1.4-.3.2-.6.2-.8.2-.2-.1-.3-.4-.3-.8 0-.5.1-1.2.5-1.8.3-.6.8-1.1 1.3-1.4.2-.1.4-.2.6-.2h.2c.2.1.3.4.3.8 0 .5-.2 1.2-.5 1.8z"/><path fill="#ededed" d="M54.5 34.3c0 .6-.1 1.2-.5 1.9-.3.6-.8 1.1-1.3 1.4-.3.2-.6.2-.8.2-.2-.1-.3-.4-.3-.8 0-.5.1-1.2.5-1.8.3-.6.8-1.1 1.3-1.4.2-.1.4-.2.6-.2h.2c.2.1.3.4.3.7z"/><path fill="#2b2e63" d="M55.2 41c-.8-.4-1.8-.4-2.7.2-.8.5-1.5 1.2-2 2.2-1.1 2.1-.9 4.4.6 5.2.3.2.7.3 1.1.3.5 0 1.1-.2 1.6-.5.8-.5 1.5-1.2 2-2.2 1.1-2.1.9-4.4-.6-5.2zm-1.1 4.3c-.3.6-.8 1.1-1.3 1.4-.3.2-.6.3-.8.1-.4-.2-.5-1.4.2-2.6.3-.6.8-1.1 1.3-1.4.2-.1.4-.2.6-.2h.2c.3.3.5 1.4-.2 2.7z"/><path fill="#ededed" d="M54.1 45.3c-.3.6-.8 1.1-1.3 1.4-.3.2-.6.3-.8.1-.4-.2-.5-1.4.2-2.6.3-.6.8-1.1 1.3-1.4.2-.1.4-.2.6-.2h.2c.3.3.5 1.4-.2 2.7z"/></svg>